<svg xmlns="http://www.w3.org/2000/svg" viewBox="0 0 800 300" width="800" height="300">
  <!-- Background -->
  <rect width="800" height="300" fill="none"/>

  <!-- Title -->
  <text x="400" y="30" text-anchor="middle" font-family="system-ui, Arial" font-size="16" font-weight="600" fill="#1F2937">FIC Workflow</text>

  <!-- Task Box -->
  <rect x="350" y="50" width="100" height="40" rx="6" fill="#F3F4F6" stroke="#D1D5DB" stroke-width="2"/>
  <text x="400" y="75" text-anchor="middle" font-family="system-ui, Arial" font-size="14" fill="#374151">Task</text>

  <!-- Arrow down -->
  <path d="M400 90 L400 110" stroke="#9CA3AF" stroke-width="2" marker-end="url(#arrow)"/>

  <!-- Find Box -->
  <rect x="80" y="120" width="140" height="50" rx="8" fill="#3B82F6"/>
  <text x="150" y="150" text-anchor="middle" font-family="system-ui, Arial" font-size="16" font-weight="600" fill="white">FIND</text>

  <!-- Gate 1 -->
  <rect x="260" y="130" width="60" height="30" rx="4" fill="#F3F4F6" stroke="#9CA3AF" stroke-width="1"/>
  <text x="290" y="150" text-anchor="middle" font-family="system-ui, Arial" font-size="11" fill="#6B7280">Gate</text>

  <!-- Implement Box -->
  <rect x="360" y="120" width="140" height="50" rx="8" fill="#3B82F6"/>
  <text x="430" y="150" text-anchor="middle" font-family="system-ui, Arial" font-size="16" font-weight="600" fill="white">IMPLEMENT</text>

  <!-- Gate 2 -->
  <rect x="540" y="130" width="60" height="30" rx="4" fill="#F3F4F6" stroke="#9CA3AF" stroke-width="1"/>
  <text x="570" y="150" text-anchor="middle" font-family="system-ui, Arial" font-size="11" fill="#6B7280">Gate</text>

  <!-- Compound Box -->
  <rect x="640" y="120" width="140" height="50" rx="8" fill="#3B82F6"/>
  <text x="710" y="150" text-anchor="middle" font-family="system-ui, Arial" font-size="16" font-weight="600" fill="white">COMPOUND</text>

  <!-- Arrows between boxes -->
  <path d="M220 145 L260 145" stroke="#9CA3AF" stroke-width="2" marker-end="url(#arrow)"/>
  <path d="M320 145 L360 145" stroke="#9CA3AF" stroke-width="2" marker-end="url(#arrow)"/>
  <path d="M500 145 L540 145" stroke="#9CA3AF" stroke-width="2" marker-end="url(#arrow)"/>
  <path d="M600 145 L640 145" stroke="#9CA3AF" stroke-width="2" marker-end="url(#arrow)"/>

  <!-- Knowledge loop -->
  <path d="M710 170 L710 220 L150 220 L150 170" stroke="#10B981" stroke-width="2" fill="none" stroke-dasharray="5,5" marker-end="url(#arrow-green)"/>
  <text x="430" y="240" text-anchor="middle" font-family="system-ui, Arial" font-size="12" fill="#10B981">Knowledge feeds next task</text>

  <!-- Arrow markers -->
  <defs>
    <marker id="arrow" markerWidth="10" markerHeight="10" refX="9" refY="3" orient="auto" markerUnits="strokeWidth">
      <path d="M0,0 L0,6 L9,3 z" fill="#9CA3AF"/>
    </marker>
    <marker id="arrow-green" markerWidth="10" markerHeight="10" refX="9" refY="3" orient="auto" markerUnits="strokeWidth">
      <path d="M0,0 L0,6 L9,3 z" fill="#10B981"/>
    </marker>
  </defs>
</svg>
